#!OML:ASF F:\VICON\USERDATA\INSTALL\rory3\rory3.ASF
:FULLY-SPECIFIED
:DEGREES
661
root 0.309408 17.7763 5.34005 -364.335 36.49 -0.218032
lowerback 22.2021 0.241085 -0.963729
upperback 2.80387 0.58473 3.91929
thorax -9.39438 0.432486 4.70477
lowerneck -11.1494 2.32724 -0.110451
upperneck 17.3242 4.52922 -6.47963
head 7.31088 1.62178 -1.64991
rclavicle 4.9895e-014 -6.36111e-015
rhumerus -21.3028 8.51572 -69.9802
rradius 99.8069
rwrist 19.3751
rhand -9.67656 6.07513
rfingers 7.12502
rthumb 16.2951 -23.2602
lclavicle 4.9895e-014 -6.36111e-015
lhumerus -42.0312 2.76767 85.5204
lradius 59.0643
lwrist 15.7789
lhand -14.4527 49.7502
lfingers 7.12502
lthumb 11.6926 79.4039
rfemur -17.7335 -8.46458 25.4302
rtibia 42.0393
rfoot -19.6874 -26.9972
rtoes 22.6096
lfemur -13.5841 13.5866 -17.3308
ltibia 47.9333
lfoot -18.6728 14.7628
ltoes -14.1358
662
root 0.289997 17.77 5.33351 -363.916 38.0928 -0.0859
lowerback 21.9067 0.282338 -1.06378
upperback 2.64234 0.620731 3.96046
thorax -9.41994 0.457035 4.7961
lowerneck -11.0757 2.18838 -0.179553
upperneck 17.4035 4.36747 -6.51225
head 7.31743 1.5389 -1.66561
rclavicle -4.75095e-014 -1.27222e-014
rhumerus -22.09 8.1648 -70.6236
rradius 97.4335
rwrist 21.1645
rhand -11.1065 7.07257
rfingers 7.12502
rthumb 14.9179 -22.3702
lclavicle -4.75095e-014 -1.27222e-014
lhumerus -42.0253 2.21596 86.2203
lradius 59.6934
lwrist 16.4715
lhand -15.8068 52.3228
lfingers 7.12502
lthumb 10.3865 82.0462
rfemur -18.4458 -9.01794 25.272
rtibia 42.6415
rfoot -20.0365 -27.695
rtoes 21.9495
lfemur -13.8568 14.2364 -17.6165
ltibia 47.2701
lfoot -18.5981 14.5354
ltoes -13.4741
663
root 0.272931 17.7623 5.33151 -364.008 39.516 -0.490288
lowerback 21.6263 0.399274 -0.79257
upperback 2.62731 0.854279 4.10352
thorax -9.30597 0.561104 4.72447
lowerneck -11.1649 1.96976 -0.14047
upperneck 17.5106 4.09691 -6.62658
head 7.36206 1.39948 -1.73536
rclavicle 1.68967e-014 -1.74931e-014
rhumerus -22.5389 7.5256 -71.1914
rradius 94.5094
rwrist 22.4992
rhand -13.0728 7.55349
rfingers 7.12502
rthumb 13.0231 -22.02
lclavicle 1.68967e-014 -1.74931e-014
lhumerus -41.7323 1.96256 86.5674
lradius 59.4236
lwrist 15.7596
lhand -14.5959 50.6424
lfingers 7.12502
lthumb 11.5544 80.3039
rfemur -18.7142 -9.51397 25.5726
rtibia 42.77
rfoot -20.0659 -28.3269
rtoes 21.7223
lfemur -14.1489 14.9439 -17.4184
ltibia 47.0618
lfoot -18.7607 14.3782
ltoes -12.8504
664
root 0.307416 17.7544 5.23989 -360.408 41.4062 3.43137
lowerback 20.9685 0.48993 -2.34215
upperback 2.26224 0.496868 3.07139
thorax -9.32145 0.425417 4.57431
lowerneck -11.4622 1.78124 -0.24073
upperneck 17.7861 3.8727 -6.54458
head 7.49391 1.28169 -1.7131
rclavicle 5.4467e-014 -2.8625e-014
rhumerus -22.8557 7.04968 -71.8292
rradius 91.368
rwrist 23.1936
rhand -15.913 6.74455
rfingers 7.12502
rthumb 10.2841 -22.984
lclavicle 5.4467e-014 -2.8625e-014
lhumerus -41.3758 1.56146 86.981
lradius 59.2245
lwrist 15.4549
lhand -12.9708 47.7367
lfingers 7.12502
lthumb 13.1214 77.3039
rfemur -20.2407 -12.0113 21.9147
rtibia 43.25
rfoot -19.3667 -27.2958
rtoes 20.5453
lfemur -15.2912 14.8554 -21.7437
ltibia 46.5114
lfoot -19.2289 15.0695
ltoes -10.1126
665
root 0.238924 17.7395 5.3451 -364.627 42.1983 -1.3563
lowerback 21.2713 0.674888 -0.518553
upperback 2.7505 1.31448 4.42349
thorax -9.02152 0.776722 4.77989
lowerneck -11.8449 1.50317 -0.66325
upperneck 18.1695 3.54885 -6.21262
head 7.66465 1.11334 -1.56604
rclavicle 6.36111e-015 -4.77083e-015
rhumerus -22.8476 6.25895 -72.1127
rradius 87.5594
rwrist 23.454
rhand -18.3281 8.47908
rfingers 7.12502
rthumb 7.95369 -21.3513
lclavicle 6.36111e-015 -4.77083e-015
lhumerus -41.392 0.72402 87.5242
lradius 59.8127
lwrist 15.8589
lhand -13.1028 48.4201
lfingers 7.12502
lthumb 12.9941 77.9955
rfemur -18.8553 -10.0192 26.2579
rtibia 43.1752
rfoot -20.2809 -29.8973
rtoes 22.0387
lfemur -14.4509 16.4522 -16.9346
ltibia 46.5076
lfoot -19.5696 13.4976
ltoes -4.43586
666
root 0.228673 17.7432 5.33558 -364.003 43.9099 -0.72165
lowerback 20.984 0.725302 -1.18268
upperback 2.7092 1.23521 4.49715
thorax -8.91949 0.763909 5.26786
lowerneck -12.0199 1.39156 -1.00345
upperneck 18.342 3.47872 -6.16977
head 7.74621 1.05515 -1.50226
rclavicle 3.598e-014 1.59028e-015
rhumerus -22.6297 5.72959 -72.1779
rradius 83.5355
rwrist 23.6642
rhand -20.2952 9.72138
rfingers 7.12502
rthumb 6.05483 -20.1721
lclavicle 3.598e-014 1.59028e-015
lhumerus -40.9334 1.19913 87.8154
lradius 59.1981
lwrist 14.358
lhand -10.783 46.1351
lfingers 7.12502
lthumb 15.2295 75.5546
rfemur -19.3026 -10.7998 25.6275
rtibia 43.563
rfoot -20.3742 -30.3878
rtoes 21.4528
lfemur -14.7228 16.8023 -17.7381
ltibia 45.9428
lfoot -20.1899 12.8166
ltoes 1.80849
667
root 0.217146 17.7392 5.31707 -362.698 45.7866 0.445308
lowerback 20.836 0.833495 -1.7122
upperback 2.33566 1.22681 4.18557
thorax -9.25492 0.781121 5.23628
lowerneck -11.8191 1.19005 -0.779725
upperneck 18.4845 3.15133 -6.09944
head 7.74776 0.92421 -1.55133
rclavicle -1.0138e-014 -2.54444e-014
rhumerus -22.8977 4.44434 -72.4029
rradius 79.3625
rwrist 24.2402
rhand -21.8243 10.6267
rfingers 7.12502
rthumb 4.57844 -19.3038
lclavicle -1.0138e-014 -2.54444e-014
lhumerus -41.0614 0.331608 88.2784
lradius 59.3446
lwrist 14.2331
lhand -10.4657 45.7652
lfingers 7.12502
lthumb 15.5351 75.1612
rfemur -19.9753 -11.5555 24.6364
rtibia 43.6374
rfoot -20.247 -30.9902
rtoes 20.7755
lfemur -15.5953 16.8824 -19.2446
ltibia 45.5418
lfoot -19.8614 13.8937
ltoes -1.38551
668
root 0.210829 17.7357 5.29467 -361.907 47.6276 1.22808
lowerback 20.9189 0.900084 -1.91065
upperback 2.0928 1.25335 4.00249
thorax -9.57232 0.806244 5.14517
lowerneck -11.7323 0.877612 -0.925718
upperneck 18.6332 2.71239 -5.85121
head 7.76217 0.728856 -1.49081
rclavicle -4.57205e-015 2.70347e-014
rhumerus -22.7495 2.96763 -72.2373
rradius 74.8558
rwrist 25.2464
rhand -22.418 11.9461
rfingers 7.12502
rthumb 4.00515 -17.996
lclavicle -4.57205e-015 2.70347e-014
lhumerus -41.0095 -0.277787 88.7265
lradius 59.1902
lwrist 13.915
lhand -10.5127 45.7007
lfingers 7.12502
lthumb 15.4899 75.1002
rfemur -20.4135 -12.3914 23.9224
rtibia 44.0113
rfoot -20.2834 -31.6167
rtoes 19.6872
lfemur -15.914 16.3493 -20.3124
ltibia 44.8161
lfoot -19.8683 14.7887
ltoes -2.22963
669
root 0.210204 17.7274 5.26799 -362.338 49.3153 0.743388
lowerback 21.2816 0.833073 -1.2501
upperback 1.93389 1.34154 4.11114
thorax -9.94614 0.834536 4.86389
lowerneck -11.5711 0.644334 -1.28453
upperneck 18.7028 2.41419 -5.58488
head 7.7412 0.59078 -1.37374
rclavicle 9.93923e-015 -2.8625e-014
rhumerus -22.3741 1.68612 -71.9753
rradius 70.0808
rwrist 26.609
rhand -22.3843 13.314
rfingers 7.12502
rthumb 4.0377 -16.6275
lclavicle 9.93923e-015 -2.8625e-014
lhumerus -40.999 -0.644662 89.1724
lradius 59.0195
lwrist 13.8207
lhand -10.1513 45.4049
lfingers 7.12502
lthumb 15.838 74.7771
rfemur -20.3567 -13.298 24.0942
rtibia 44.1664
rfoot -19.9603 -32.1471
rtoes 18.7743
lfemur -15.9797 16.0562 -20.2677
ltibia 44.3416
lfoot -19.8335 15.0264
ltoes -1.17162
670
root 0.209191 17.7191 5.23877 -363.174 50.9067 -0.094471
lowerback 21.6352 0.737972 -0.501873
upperback 1.9109 1.43674 4.35299
thorax -10.1646 0.861211 4.67602
lowerneck -11.4391 0.568737 -1.35241
upperneck 18.6695 2.33001 -5.61883
head 7.70449 0.548499 -1.38165
rclavicle -5.60573e-014 -1.11319e-014
rhumerus -21.6428 0.664083 -71.6594
rradius 65.0404
rwrist 28.1554
rhand -22.2511 13.6374
rfingers 7.12502
rthumb 4.16628 -16.3016
lclavicle -5.60573e-014 -1.11319e-014
lhumerus -40.9638 -0.77577 89.603
lradius 58.8672
lwrist 13.3386
lhand -9.66804 44.812
lfingers 7.12502
lthumb 16.3033 74.1467
rfemur -20.1464 -14.6094 24.4587
rtibia 44.216
rfoot -19.0551 -32.4715
rtoes 16.8543
lfemur -15.9982 16.7347 -19.8879
ltibia 43.9913
lfoot -19.4072 14.7131
ltoes -1.40548
671
root 0.21219 17.7305 5.22323 -363.801 52.5065 -0.803164
lowerback 21.4705 0.72536 -0.186381
upperback 2.03627 1.54097 4.72614
thorax -9.94797 0.908103 4.87507
lowerneck -11.6738 0.472259 -1.59187
upperneck 18.8695 2.28 -5.65086
head 7.8114 0.498889 -1.35828
rclavicle 9.91935e-014 -1.11319e-014
rhumerus -20.5792 -0.336856 -71.0344
rradius 59.9552
rwrist 29.3319
rhand -22.1031 13.4444
rfingers 7.12502
rthumb 4.30923 -16.4918
lclavicle 9.91935e-014 -1.11319e-014
lhumerus -40.6248 -0.88571 90.4929
lradius 58.9561
lwrist 13.9842
lhand -11.5462 47.5377
lfingers 7.12502
lthumb 14.4943 77.0115
rfemur -19.9682 -16.3598 24.6703
rtibia 44.1564
rfoot -18.2503 -32.2992
rtoes 15.1012
lfemur -15.6265 14.9926 -19.2277
ltibia 43.8572
lfoot -23.8875 9.74562
ltoes 30.0769
672
root 0.208935 17.7145 5.22498 -364.445 53.9264 -1.47199
lowerback 21.2655 0.850474 -0.129889
upperback 2.18678 1.75985 5.09394
thorax -9.69983 1.01989 5.18387
lowerneck -12.1144 0.288414 -2.07341
upperneck 19.2605 2.12842 -5.4268
head 8.01281 0.399316 -1.22194
rclavicle -3.77691e-014 2.8625e-014
rhumerus -19.4973 -1.32654 -70.2975
rradius 55.0995
rwrist 29.4524
rhand -21.0688 13.3517
rfingers 7.12502
rthumb 5.30789 -16.5618
lclavicle -3.77691e-014 2.8625e-014
lhumerus -40.0603 -0.0406479 90.5852
lradius 57.9529
lwrist 11.6821
lhand -8.87042 44.7327
lfingers 7.12502
lthumb 17.0712 74.0027
rfemur -19.7928 -16.269 25.0161
rtibia 44.185
rfoot -18.0087 -33.5349
rtoes 13.8245
lfemur -15.9171 15.3547 -19.2896
ltibia 43.588
lfoot -22.7921 11.677
ltoes 22.7455
673
root 0.197787 17.7091 5.20924 -364.771 55.102 -1.68144
lowerback 21.5747 1.09518 -0.037593
upperback 2.10774 2.12646 5.15355
thorax -9.99159 1.19774 5.09148
lowerneck -12.1477 0.0690052 -2.44021
upperneck 19.5865 1.83334 -4.96296
head 8.11474 0.272118 -1.03955
rclavicle 2.16675e-014 1.74931e-014
rhumerus -18.9245 -2.49359 -69.6606
rradius 50.628
rwrist 29.2853
rhand -19.1624 13.0541
rfingers 7.12502
rthumb 7.14837 -16.8051
lclavicle 2.16675e-014 1.74931e-014
lhumerus -40.2433 -0.708626 91.1227
lradius 58.1721
lwrist 12.4841
lhand -10.1068 45.5532
lfingers 7.12502
lthumb 15.8808 74.922
rfemur -19.668 -15.9628 25.0369
rtibia 44.2069
rfoot -17.4349 -34.7166
rtoes 12.9539
lfemur -15.9325 14.8625 -19.4991
ltibia 43.3509
lfoot -22.4901 12.3692
ltoes 20.2833
674
root 0.19661 17.7197 5.19255 -364.598 56.5078 -1.33645
lowerback 21.7992 1.1989 -0.0914583
upperback 2.0138 2.24996 5.05364
thorax -10.2286 1.25961 4.97552
lowerneck -12.0891 -0.0279638 -2.54015
upperneck 19.76 1.69951 -4.79253
head 8.15774 0.217809 -0.980952
rclavicle -5.48646e-014 2.70347e-014
rhumerus -18.4268 -3.62014 -69.2326
rradius 46.6435
rwrist 29.0213
rhand -17.0351 11.9623
rfingers 7.12502
rthumb 9.20146 -17.817
lclavicle -5.48646e-014 2.70347e-014
lhumerus -40.7087 -1.49425 91.2227
lradius 58.429
lwrist 12.0449
lhand -9.07354 44.8145
lfingers 7.12502
lthumb 16.8756 74.1012
rfemur -19.5542 -16.3355 24.618
rtibia 44.291
rfoot -16.4825 -35.6111
rtoes 11.4371
lfemur -15.6114 13.5796 -19.7155
ltibia 42.9967
lfoot -23.7876 10.185
ltoes 29.7335
